{"glyphs":{"0":{"ha":1083,"x_min":97,"x_max":986,"o":"m 542 -14 q 353 24 436 -14 q 214 129 271 63 q 127 288 157 196 q 97 486 97 379 q 127 685 97 593 q 214 843 157 776 q 353 948 271 910 q 542 986 436 986 q 730 948 647 986 q 869 843 813 910 q 956 685 926 776 q 986 486 986 593 q 956 288 986 379 q 869 129 926 196 q 730 24 813 63 q 542 -14 647 -14 m 542 106 q 676 135 618 106 q 772 217 733 165 q 831 338 811 268 q 850 486 850 407 q 831 635 850 565 q 772 756 811 704 q 676 837 733 807 q 542 867 618 867 q 408 837 465 867 q 311 756 350 807 q 253 635 272 704 q 233 486 233 565 q 253 338 233 407 q 311 217 272 268 q 408 135 350 165 q 542 106 465 106 z "},"1":{"ha":519,"x_min":56,"x_max":394,"o":"m 264 811 l 56 647 l 56 794 l 275 972 l 394 972 l 394 0 l 264 0 l 264 811 z "},"2":{"ha":944,"x_min":76,"x_max":861,"o":"m 76 103 q 104 213 76 165 q 178 298 132 261 q 282 365 224 335 q 401 422 340 394 q 521 475 463 449 q 625 533 579 501 q 699 602 671 564 q 726 692 726 640 q 662 824 726 781 q 481 867 597 867 q 299 820 364 867 q 235 671 235 774 l 235 643 l 104 643 l 104 671 q 131 804 104 746 q 206 903 157 863 q 325 965 256 944 q 481 986 394 986 q 636 966 567 986 q 755 908 706 946 q 831 815 804 869 q 857 692 857 760 q 829 573 857 625 q 756 481 801 521 q 653 409 711 440 q 535 351 596 378 q 417 299 475 324 q 315 248 360 275 q 242 189 269 221 q 214 117 214 157 l 861 117 l 861 0 l 76 0 l 76 103 z "},"3":{"ha":940,"x_min":83,"x_max":864,"o":"m 474 -14 q 316 7 388 -14 q 192 69 244 28 q 112 168 140 110 q 83 301 83 226 l 83 326 l 214 326 l 214 301 q 233 213 214 250 q 286 152 251 176 q 368 117 321 128 q 474 106 415 106 q 579 117 532 106 q 661 153 626 129 q 715 213 696 176 q 733 297 733 249 q 715 385 733 349 q 661 444 696 421 q 579 478 626 467 q 474 489 532 489 l 224 489 l 224 606 l 610 850 l 610 856 l 117 856 l 117 972 l 815 972 l 815 856 l 429 611 l 429 606 l 474 606 q 631 585 560 606 q 755 526 703 565 q 835 430 807 488 q 864 297 864 372 q 835 167 864 225 q 755 69 807 110 q 631 8 703 29 q 474 -14 560 -14 z "},"4":{"ha":935,"x_min":42,"x_max":886,"o":"m 622 232 l 42 232 l 42 349 l 578 972 l 753 972 l 753 349 l 886 349 l 886 232 l 753 232 l 753 0 l 622 0 l 622 232 m 622 349 l 622 850 l 618 850 l 192 353 l 192 349 l 622 349 z "},"5":{"ha":963,"x_min":118,"x_max":886,"o":"m 501 -14 q 343 6 414 -14 q 222 65 272 26 q 145 157 172 103 q 118 279 118 211 l 249 279 q 315 150 249 194 q 501 106 381 106 q 687 157 618 106 q 756 318 756 208 q 686 480 756 429 q 494 531 617 531 q 368 513 415 531 q 294 475 321 496 q 250 419 264 450 l 118 419 l 118 972 l 819 972 l 819 856 l 249 856 l 249 572 l 251 572 q 310 611 274 594 q 389 638 340 626 q 508 650 438 650 q 660 628 590 650 q 779 563 729 606 q 858 458 829 519 q 886 318 886 397 q 858 178 886 239 q 780 74 831 117 q 658 8 729 31 q 501 -14 588 -14 z "},"6":{"ha":988,"x_min":97,"x_max":897,"o":"m 508 -14 q 328 19 406 -14 q 200 113 251 51 q 123 260 149 174 q 97 456 97 347 l 97 499 q 123 685 97 596 q 199 840 149 774 q 326 947 250 907 q 503 986 401 986 q 671 953 603 986 q 781 874 739 919 q 840 781 822 828 q 858 710 858 735 l 722 710 q 683 789 710 753 q 617 844 660 819 q 503 869 574 869 q 388 843 438 869 q 303 770 338 817 q 251 660 269 724 q 233 522 233 596 l 238 522 q 297 578 260 553 q 383 617 329 599 q 519 635 438 635 q 671 611 601 635 q 790 544 740 588 q 869 442 840 501 q 897 311 897 382 q 869 176 897 236 q 790 74 842 117 q 667 9 739 32 q 508 -14 596 -14 m 508 103 q 610 117 564 103 q 690 159 657 132 q 742 224 724 186 q 761 311 761 263 q 742 398 761 360 q 689 463 722 436 q 609 504 656 490 q 508 518 563 518 q 408 504 454 518 q 328 463 361 490 q 275 398 294 436 q 256 311 256 360 q 274 224 256 263 q 325 159 292 186 q 405 117 358 132 q 508 103 451 103 z "},"7":{"ha":804,"x_min":35,"x_max":776,"o":"m 629 856 l 35 856 l 35 972 l 776 972 l 776 856 l 315 0 l 168 0 l 629 856 z "},"8":{"ha":992,"x_min":97,"x_max":894,"o":"m 496 -14 q 334 7 407 -14 q 208 65 261 28 q 126 156 156 103 q 97 275 97 210 q 128 390 97 346 q 199 461 160 435 q 301 507 244 492 l 301 513 q 214 550 251 525 q 155 612 182 572 q 128 715 128 651 q 154 828 128 778 q 228 914 181 879 q 344 967 276 949 q 496 986 413 986 q 647 967 579 986 q 763 914 715 949 q 838 828 811 879 q 864 715 864 778 q 836 612 864 651 q 776 550 808 572 q 690 513 739 525 l 690 507 q 792 461 746 492 q 863 390 831 435 q 894 275 894 344 q 865 156 894 210 q 783 65 836 103 q 658 7 731 28 q 496 -14 585 -14 m 496 106 q 688 149 618 106 q 758 275 758 192 q 688 401 758 358 q 496 444 618 444 q 303 401 374 444 q 233 275 233 358 q 303 149 233 192 q 496 106 374 106 m 496 564 q 669 606 611 564 q 728 715 728 649 q 667 826 728 786 q 496 867 607 867 q 324 826 385 867 q 264 715 264 786 q 322 606 264 649 q 496 564 381 564 z "},"9":{"ha":988,"x_min":90,"x_max":890,"o":"m 474 -14 q 303 19 374 -14 q 188 96 232 51 q 124 188 144 140 q 104 263 104 235 l 240 263 q 283 182 254 218 q 353 127 308 151 q 474 103 399 103 q 597 129 544 103 q 685 202 650 156 q 737 313 719 249 q 754 450 754 376 l 750 450 q 690 393 728 418 q 603 355 658 372 q 468 338 549 338 q 317 361 386 338 q 197 428 247 385 q 119 531 147 471 q 90 661 90 590 q 118 796 90 736 q 197 898 146 856 q 320 963 249 940 q 479 986 392 986 q 659 953 582 986 q 788 860 736 921 q 865 712 839 799 q 890 517 890 625 l 890 474 q 865 287 890 375 q 789 132 840 199 q 659 26 738 65 q 474 -14 581 -14 m 479 454 q 580 468 533 454 q 660 509 626 482 q 713 574 693 536 q 732 661 732 613 q 713 747 732 708 q 661 813 694 786 q 581 855 628 840 q 479 869 535 869 q 376 855 422 869 q 296 813 329 840 q 244 747 263 786 q 226 661 226 708 q 246 574 226 613 q 299 509 265 536 q 378 468 332 482 q 479 454 425 454 z "}," ":{"ha":333,"x_min":0,"x_max":0,"o":""},"!":{"ha":417,"x_min":132,"x_max":285,"o":"m 208 -14 q 152 5 172 -14 q 132 58 132 24 q 152 112 132 93 q 208 131 172 131 q 265 112 244 131 q 285 58 285 93 q 265 5 285 24 q 208 -14 244 -14 m 143 764 l 143 972 l 274 972 l 274 764 l 253 278 l 164 278 l 143 764 z "},"\"":{"ha":556,"x_min":111,"x_max":444,"o":"m 111 854 l 111 972 l 222 972 l 222 854 l 206 569 l 128 569 l 111 854 m 333 854 l 333 972 l 444 972 l 444 854 l 428 569 l 350 569 l 333 854 z "},"#":{"ha":993,"x_min":49,"x_max":944,"o":"m 207 250 l 49 250 l 49 342 l 229 342 l 300 631 l 144 631 l 144 722 l 322 722 l 383 972 l 493 972 l 432 722 l 675 722 l 736 972 l 846 972 l 785 722 l 944 722 l 944 631 l 763 631 l 692 342 l 853 342 l 853 250 l 669 250 l 608 0 l 499 0 l 560 250 l 317 250 l 256 0 l 146 0 l 207 250 m 582 342 l 653 631 l 410 631 l 339 342 l 582 342 z "},"$":{"ha":932,"x_min":90,"x_max":849,"o":"m 403 -11 q 246 35 314 0 q 189 69 217 49 q 139 119 161 90 q 103 185 117 147 q 90 269 90 222 l 90 325 l 221 325 l 221 269 q 241 194 221 225 q 295 143 261 163 q 374 115 329 124 q 469 106 419 106 q 565 115 519 106 q 644 143 610 124 q 698 194 678 163 q 718 269 718 225 q 692 345 718 317 q 623 391 665 374 q 526 419 581 408 q 415 442 471 431 q 303 472 358 454 q 206 519 249 489 q 138 597 164 550 q 111 717 111 644 q 124 798 111 763 q 156 860 136 833 q 203 907 176 888 q 257 940 229 926 q 403 983 321 972 l 403 1147 l 531 1147 l 531 983 q 669 939 608 972 q 721 903 696 924 q 765 854 746 883 q 797 788 785 825 q 808 703 808 750 l 808 675 l 678 675 l 678 703 q 619 826 678 786 q 460 867 560 867 q 301 828 360 867 q 242 717 242 790 q 268 640 242 669 q 337 592 294 611 q 434 561 379 574 q 545 535 489 549 q 656 504 601 522 q 753 457 711 486 q 822 383 796 428 q 849 269 849 338 q 835 183 849 221 q 799 117 821 146 q 747 68 776 89 q 689 33 718 47 q 531 -11 619 -1 l 531 -175 l 403 -175 l 403 -11 z "},"%":{"ha":1133,"x_min":56,"x_max":1078,"o":"m 836 972 l 964 972 l 297 0 l 169 0 l 836 972 m 857 -14 q 696 47 756 -14 q 636 211 636 108 q 696 375 636 314 q 857 436 756 436 q 1018 375 958 436 q 1078 211 1078 314 q 1018 47 1078 108 q 857 -14 958 -14 m 857 74 q 943 115 914 74 q 972 211 972 157 q 943 307 972 265 q 857 349 914 349 q 771 307 800 349 q 742 211 742 265 q 771 115 742 157 q 857 74 800 74 m 276 536 q 115 597 175 536 q 56 761 56 658 q 115 925 56 864 q 276 986 175 986 q 438 925 378 986 q 497 761 497 864 q 438 597 497 658 q 276 536 378 536 m 276 624 q 363 665 333 624 q 392 761 392 707 q 363 857 392 815 q 276 899 333 899 q 190 857 219 899 q 161 761 161 815 q 190 665 161 707 q 276 624 219 624 z "},"&":{"ha":958,"x_min":90,"x_max":944,"o":"m 447 -14 q 292 13 358 -14 q 180 83 225 39 q 113 188 135 128 q 90 315 90 249 q 126 473 90 413 q 206 568 161 533 q 321 626 256 607 l 321 631 l 135 858 l 135 972 l 804 972 l 804 858 l 303 858 l 303 854 l 683 385 l 683 647 l 799 647 l 799 251 l 944 71 l 853 -14 l 740 121 l 738 121 q 675 53 714 82 q 586 7 642 28 q 447 -14 531 -14 m 447 100 q 549 118 508 100 q 614 158 589 136 q 660 218 643 183 l 403 533 q 310 496 350 522 q 245 430 274 472 q 217 315 217 388 q 232 230 217 269 q 276 162 247 190 q 349 117 306 133 q 447 100 392 100 z "},"'":{"ha":333,"x_min":111,"x_max":222,"o":"m 111 854 l 111 972 l 222 972 l 222 854 l 206 569 l 128 569 l 111 854 z "},"(":{"ha":600,"x_min":97,"x_max":586,"o":"m 586 -346 q 394 -294 483 -346 q 240 -145 306 -242 q 135 87 174 -49 q 97 389 97 222 q 135 692 97 556 q 240 924 174 828 q 394 1073 306 1021 q 586 1125 483 1125 l 586 1022 q 442 974 508 1022 q 327 840 376 925 q 250 640 278 756 q 222 390 222 524 q 250 140 222 256 q 327 -60 278 25 q 442 -194 376 -146 q 586 -243 508 -243 l 586 -346 l 586 -346 z "},")":{"ha":600,"x_min":14,"x_max":503,"o":"m 14 -243 q 157 -194 90 -243 q 273 -60 224 -146 q 350 140 322 25 q 378 390 378 256 q 350 640 378 524 q 273 840 322 756 q 157 974 224 925 q 14 1022 90 1022 l 14 1125 q 206 1073 117 1125 q 360 924 294 1021 q 465 692 426 828 q 503 389 503 556 q 465 87 503 222 q 360 -145 426 -49 q 206 -294 294 -242 q 14 -346 117 -346 l 14 -243 z "},"+":{"ha":686,"x_min":56,"x_max":631,"o":"m 289 297 l 56 297 l 56 406 l 289 406 l 289 642 l 397 642 l 397 406 l 631 406 l 631 297 l 397 297 l 397 61 l 289 61 l 289 297 z "},",":{"ha":292,"x_min":69,"x_max":222,"o":"m 136 -62 q 126 -26 136 -35 q 103 -12 115 -18 q 80 5 90 -7 q 69 51 69 17 q 90 111 69 92 q 146 131 110 131 q 201 109 181 131 q 222 39 221 88 q 196 -126 222 -71 q 136 -181 169 -181 l 136 -62 z "},"-":{"ha":428,"x_min":56,"x_max":372,"o":"m 56 350 l 372 482 l 372 356 l 56 224 l 56 350 z "},".":{"ha":292,"x_min":69,"x_max":222,"o":"m 146 -14 q 90 5 110 -14 q 69 58 69 24 q 90 112 69 93 q 146 131 110 131 q 202 112 182 131 q 222 58 222 93 q 202 5 222 24 q 146 -14 182 -14 z "},"/":{"ha":643,"x_min":0,"x_max":643,"o":"m 529 972 l 643 972 l 114 -167 l 0 -167 l 529 972 z "},":":{"ha":292,"x_min":69,"x_max":222,"o":"m 146 -14 q 90 5 110 -14 q 69 58 69 24 q 90 112 69 93 q 146 131 110 131 q 202 112 182 131 q 222 58 222 93 q 202 5 222 24 q 146 -14 182 -14 m 146 550 q 90 569 110 550 q 69 622 69 588 q 90 676 69 657 q 146 694 110 694 q 202 676 182 694 q 222 622 222 657 q 202 569 222 588 q 146 550 182 550 z "},";":{"ha":292,"x_min":69,"x_max":222,"o":"m 136 -62 q 126 -26 136 -35 q 103 -12 115 -18 q 80 5 90 -7 q 69 51 69 17 q 90 111 69 92 q 146 131 110 131 q 201 109 181 131 q 222 39 221 88 q 196 -126 222 -71 q 136 -181 169 -181 l 136 -62 m 146 550 q 90 569 110 550 q 69 622 69 588 q 90 676 69 657 q 146 694 110 694 q 202 676 182 694 q 222 622 222 657 q 202 569 222 588 q 146 550 182 550 z "},"=":{"ha":721,"x_min":69,"x_max":651,"o":"m 69 292 l 651 292 l 651 183 l 69 183 l 69 292 m 69 551 l 651 551 l 651 443 l 69 443 l 69 551 z "},"?":{"ha":850,"x_min":56,"x_max":794,"o":"m 415 -14 q 359 5 379 -14 q 339 58 339 24 q 359 112 339 93 q 415 131 379 131 q 472 112 451 131 q 492 58 492 93 q 472 5 492 24 q 415 -14 451 -14 m 411 282 q 260 326 311 282 q 208 446 208 371 q 242 549 208 513 q 326 605 276 585 q 436 635 376 625 q 546 659 496 646 q 630 696 596 672 q 664 765 664 719 q 597 844 664 819 q 425 869 531 869 q 253 835 319 869 q 186 738 186 800 l 186 696 l 56 696 l 56 738 q 83 842 56 796 q 160 919 111 888 q 276 969 208 951 q 425 986 344 986 q 574 972 506 986 q 690 929 642 957 q 767 860 739 901 q 794 765 794 819 q 760 650 794 692 q 675 587 726 608 q 564 556 624 565 q 453 535 504 546 q 367 505 401 524 q 333 446 333 486 q 356 401 333 418 q 411 385 379 385 q 466 399 443 385 q 489 443 489 414 l 489 456 l 614 456 l 614 443 q 563 325 614 368 q 411 282 511 282 z "},"@":{"ha":1367,"x_min":97,"x_max":1283,"o":"m 672 -243 q 438 -199 543 -243 q 256 -76 332 -156 q 139 114 181 3 q 97 361 97 225 q 141 609 97 497 q 263 801 185 721 q 449 924 340 881 q 688 968 558 968 q 943 923 832 968 q 1130 797 1054 878 q 1244 608 1206 717 q 1283 371 1283 499 q 1265 225 1283 285 q 1216 128 1246 165 q 1147 73 1186 90 q 1065 56 1107 56 q 973 74 1007 56 q 921 117 939 93 q 892 179 899 143 l 889 179 q 846 117 874 143 q 782 74 822 93 q 679 56 742 56 q 566 77 618 56 q 476 138 514 99 q 416 231 438 176 q 394 353 394 286 q 417 478 394 422 q 478 572 440 533 q 564 630 515 610 q 665 650 613 650 q 754 636 718 650 q 811 607 790 622 q 849 565 836 589 l 851 565 l 851 636 l 971 636 l 971 279 q 996 192 971 221 q 1065 164 1021 164 q 1120 182 1100 165 q 1150 226 1140 199 q 1162 291 1160 254 q 1164 371 1164 328 q 1134 574 1164 483 q 1045 727 1104 664 q 897 825 986 790 q 688 860 807 860 q 487 822 575 860 q 339 719 399 785 q 248 561 279 653 q 217 361 217 469 q 248 167 217 257 q 338 9 279 76 q 481 -97 396 -58 q 672 -135 565 -135 q 772 -127 731 -135 q 842 -108 814 -119 q 896 -82 874 -97 l 949 -175 q 876 -210 918 -194 q 790 -233 840 -222 q 672 -243 739 -243 m 679 164 q 803 216 756 164 q 851 353 851 268 q 803 490 851 438 q 679 542 756 542 q 558 490 603 542 q 514 353 514 438 q 558 216 514 268 q 679 164 603 164 z "},"A":{"ha":1010,"x_min":21,"x_max":989,"o":"m 418 972 l 592 972 l 989 0 l 851 0 l 764 214 l 246 214 l 158 0 l 21 0 l 418 972 m 715 331 l 508 854 l 501 854 l 293 331 l 715 331 z "},"B":{"ha":1003,"x_min":125,"x_max":919,"o":"m 125 972 l 538 972 q 783 907 699 972 q 867 704 867 842 q 845 610 867 646 q 797 551 824 574 q 728 513 767 526 l 728 507 q 824 468 781 496 q 858 439 842 456 q 889 399 875 422 q 911 345 903 375 q 919 276 919 315 q 832 69 919 139 q 563 0 744 0 l 125 0 l 125 972 m 563 117 q 728 154 672 117 q 783 276 783 192 q 728 399 783 361 q 563 438 672 438 l 256 438 l 256 117 l 563 117 m 538 551 q 678 585 626 551 q 731 704 731 619 q 678 822 731 789 q 538 856 626 856 l 256 856 l 256 551 l 538 551 z "},"C":{"ha":1144,"x_min":97,"x_max":1054,"o":"m 583 -14 q 381 23 471 -14 q 228 126 290 60 q 131 285 165 193 q 97 486 97 376 q 131 688 97 596 q 228 846 165 779 q 381 949 290 913 q 583 986 471 986 q 801 943 711 986 q 947 839 890 900 q 1028 709 1003 778 q 1054 590 1054 640 l 919 590 q 864 728 904 667 q 821 779 846 754 q 762 824 796 804 q 683 855 728 843 q 583 867 639 867 q 435 838 500 867 q 324 757 369 808 q 256 636 279 706 q 233 486 233 567 q 256 336 233 406 q 324 215 279 267 q 435 135 369 164 q 583 106 500 106 q 683 117 639 106 q 762 149 728 129 q 821 192 796 168 q 864 243 846 217 q 919 382 904 304 l 1054 382 q 1028 263 1054 332 q 947 133 1003 194 q 801 29 890 72 q 583 -14 711 -14 z "},"D":{"ha":1071,"x_min":125,"x_max":974,"o":"m 125 972 l 488 972 q 690 938 600 972 q 843 839 781 903 q 940 685 906 775 q 974 486 974 596 q 940 287 974 376 q 843 133 906 197 q 690 35 781 69 q 488 0 600 0 l 125 0 l 125 972 m 488 117 q 635 144 569 117 q 745 222 700 172 q 814 338 790 271 q 838 486 838 406 q 814 634 838 567 q 745 751 790 701 q 635 828 700 800 q 488 856 569 856 l 256 856 l 256 117 l 488 117 z "},"E":{"ha":939,"x_min":125,"x_max":856,"o":"m 125 972 l 856 972 l 856 856 l 256 856 l 256 558 l 772 558 l 772 442 l 256 442 l 256 117 l 856 117 l 856 0 l 125 0 l 125 972 z "},"F":{"ha":896,"x_min":125,"x_max":847,"o":"m 125 972 l 847 972 l 847 856 l 256 856 l 256 507 l 750 507 l 750 390 l 256 390 l 256 0 l 125 0 l 125 972 z "},"G":{"ha":1165,"x_min":97,"x_max":1054,"o":"m 575 -14 q 376 23 464 -14 q 226 126 288 60 q 131 285 164 193 q 97 486 97 376 q 131 688 97 596 q 228 846 165 779 q 381 949 290 913 q 583 986 471 986 q 791 947 704 986 q 934 851 878 908 q 1019 728 990 793 q 1053 611 1049 663 l 915 611 q 892 678 910 635 q 838 763 875 721 q 738 835 800 804 q 583 867 676 867 q 435 838 500 867 q 324 757 369 808 q 256 636 279 706 q 233 486 233 567 q 256 336 233 406 q 322 215 278 267 q 429 135 365 164 q 575 106 493 106 q 714 135 654 106 q 815 208 774 165 q 876 297 856 250 q 896 379 896 344 l 576 379 l 576 496 l 1054 496 l 1054 0 l 931 0 l 931 199 l 925 199 q 856 92 901 138 q 748 19 815 51 q 575 -14 681 -14 z "},"H":{"ha":1079,"x_min":125,"x_max":954,"o":"m 125 972 l 256 972 l 256 564 l 824 564 l 824 972 l 954 972 l 954 0 l 824 0 l 824 447 l 256 447 l 256 0 l 125 0 l 125 972 z "},"I":{"ha":811,"x_min":83,"x_max":728,"o":"m 83 117 l 340 117 l 340 856 l 83 856 l 83 972 l 728 972 l 728 856 l 471 856 l 471 117 l 728 117 l 728 0 l 83 0 l 83 117 z "},"J":{"ha":883,"x_min":63,"x_max":765,"o":"m 414 -14 q 265 12 331 -14 q 155 83 200 38 q 86 190 110 128 q 63 325 63 251 l 63 379 l 193 379 l 193 325 q 248 165 193 225 q 414 106 303 106 q 580 165 525 106 q 635 325 635 225 l 635 856 l 211 856 l 211 972 l 765 972 l 765 325 q 742 190 765 251 q 673 83 718 128 q 563 12 628 38 q 414 -14 497 -14 z "},"K":{"ha":911,"x_min":125,"x_max":911,"o":"m 125 972 l 256 972 l 256 503 l 718 972 l 881 972 l 413 494 l 911 0 l 749 0 l 256 481 l 256 0 l 125 0 l 125 972 z "},"L":{"ha":882,"x_min":125,"x_max":854,"o":"m 125 972 l 256 972 l 256 117 l 854 117 l 854 0 l 125 0 l 125 972 z "},"M":{"ha":1258,"x_min":125,"x_max":1133,"o":"m 125 972 l 325 972 l 626 382 l 632 382 l 933 972 l 1133 972 l 1133 0 l 1003 0 l 1003 819 l 997 819 l 711 260 l 547 260 l 261 819 l 256 819 l 256 0 l 125 0 l 125 972 z "},"N":{"ha":1101,"x_min":125,"x_max":976,"o":"m 125 972 l 319 972 l 842 146 l 846 146 l 846 972 l 976 972 l 976 0 l 782 0 l 260 826 l 256 826 l 256 0 l 125 0 l 125 972 z "},"O":{"ha":1167,"x_min":97,"x_max":1069,"o":"m 583 -14 q 381 23 471 -14 q 228 126 290 60 q 131 285 165 193 q 97 486 97 376 q 131 688 97 596 q 228 846 165 779 q 381 949 290 913 q 583 986 471 986 q 786 949 696 986 q 939 846 876 913 q 1035 688 1001 779 q 1069 486 1069 596 q 1035 285 1069 376 q 939 126 1001 193 q 786 23 876 60 q 583 -14 696 -14 m 583 106 q 732 135 667 106 q 842 215 797 164 q 910 336 888 267 q 933 486 933 406 q 910 636 933 567 q 842 757 888 706 q 732 838 797 808 q 583 867 667 867 q 435 838 500 867 q 324 757 369 808 q 256 636 279 706 q 233 486 233 567 q 256 336 233 406 q 324 215 279 267 q 435 135 369 164 q 583 106 500 106 z "},"P":{"ha":982,"x_min":125,"x_max":885,"o":"m 125 972 l 496 972 q 787 884 689 972 q 885 628 885 796 q 787 372 885 460 q 496 283 689 283 l 256 283 l 256 0 l 125 0 l 125 972 m 496 400 q 683 456 617 400 q 749 628 749 511 q 683 800 749 744 q 496 856 617 856 l 256 856 l 256 400 l 496 400 z "},"Q":{"ha":1167,"x_min":97,"x_max":1069,"o":"m 1058 -257 q 928 -247 988 -257 q 823 -219 869 -236 q 740 -181 776 -203 q 678 -136 704 -160 q 583 -14 615 -82 q 381 23 471 -14 q 228 126 290 60 q 131 285 165 193 q 97 486 97 376 q 131 688 97 596 q 228 846 165 779 q 381 949 290 913 q 583 986 471 986 q 786 949 696 986 q 939 846 876 913 q 1035 688 1001 779 q 1069 486 1069 596 q 1055 347 1069 408 q 1016 236 1040 285 q 961 151 992 188 q 899 90 931 115 q 728 4 822 29 q 853 -103 769 -68 q 1058 -137 936 -137 l 1058 -257 m 583 106 q 732 135 667 106 q 842 215 797 164 q 910 336 888 267 q 933 486 933 406 q 910 636 933 567 q 842 757 888 706 q 732 838 797 808 q 583 867 667 867 q 435 838 500 867 q 324 757 369 808 q 256 636 279 706 q 233 486 233 567 q 256 336 233 406 q 324 215 279 267 q 435 135 369 164 q 583 106 500 106 z "},"R":{"ha":999,"x_min":125,"x_max":929,"o":"m 125 972 l 500 972 q 782 894 688 972 q 876 669 876 817 q 868 590 876 625 q 846 528 860 556 q 815 481 832 501 q 779 444 797 460 q 683 393 736 408 l 929 0 l 779 0 l 547 367 l 256 367 l 256 0 l 125 0 l 125 972 m 500 483 q 678 528 615 483 q 740 669 740 574 q 677 810 740 765 q 500 856 614 856 l 256 856 l 256 483 l 500 483 z "},"S":{"ha":988,"x_min":90,"x_max":904,"o":"m 497 -14 q 340 3 414 -14 q 210 56 265 21 q 123 145 156 92 q 90 269 90 199 l 90 325 l 221 325 l 221 269 q 243 190 221 222 q 303 140 265 158 q 392 113 342 121 q 497 106 442 106 q 603 114 553 106 q 691 141 653 122 q 751 191 729 160 q 774 269 774 222 q 745 347 774 318 q 671 392 717 375 q 566 419 625 410 q 446 440 507 429 q 326 467 385 451 q 221 514 267 483 q 147 593 175 544 q 118 717 118 642 q 146 829 118 779 q 223 914 174 879 q 342 967 272 949 q 494 986 411 986 q 647 967 578 986 q 766 913 717 949 q 843 824 815 876 q 871 703 871 771 l 871 675 l 740 675 l 740 703 q 722 778 740 747 q 672 829 704 810 q 595 858 640 849 q 494 867 550 867 q 316 831 383 867 q 249 717 249 794 q 277 639 249 668 q 351 591 306 610 q 456 561 397 572 q 576 538 515 550 q 697 508 638 525 q 801 462 756 492 q 876 386 847 432 q 904 269 904 340 q 872 145 904 199 q 784 56 839 92 q 655 3 729 21 q 497 -14 581 -14 z "},"T":{"ha":882,"x_min":28,"x_max":854,"o":"m 376 856 l 28 856 l 28 972 l 854 972 l 854 856 l 507 856 l 507 0 l 376 0 l 376 856 z "},"U":{"ha":1064,"x_min":111,"x_max":953,"o":"m 532 -14 q 369 7 446 -14 q 235 71 292 28 q 144 179 178 114 q 111 333 111 244 l 111 972 l 242 972 l 242 340 q 265 233 242 278 q 329 160 289 188 q 422 119 369 132 q 532 106 474 106 q 642 119 590 106 q 735 160 694 132 q 799 233 775 189 q 822 340 822 278 l 822 972 l 953 972 l 953 333 q 919 179 953 244 q 828 71 886 114 q 694 7 771 28 q 532 -14 618 -14 z "},"V":{"ha":964,"x_min":35,"x_max":929,"o":"m 35 972 l 174 972 l 478 139 l 486 139 l 790 972 l 929 972 l 574 0 l 390 0 l 35 972 z "},"W":{"ha":1432,"x_min":49,"x_max":1383,"o":"m 49 972 l 185 972 l 397 163 l 406 163 l 618 972 l 814 972 l 1026 163 l 1035 163 l 1247 972 l 1383 972 l 1128 0 l 933 0 l 718 819 l 714 819 l 499 0 l 304 0 l 49 972 z "},"X":{"ha":885,"x_min":14,"x_max":871,"o":"m 368 503 l 38 972 l 186 972 l 442 608 l 699 972 l 847 972 l 517 503 l 871 0 l 722 0 l 442 397 l 163 0 l 14 0 l 368 503 z "},"Y":{"ha":914,"x_min":14,"x_max":900,"o":"m 385 358 l 14 972 l 157 972 l 453 481 l 460 481 l 757 972 l 900 972 l 529 358 l 529 0 l 385 0 l 385 358 z "},"Z":{"ha":901,"x_min":63,"x_max":839,"o":"m 63 117 l 660 850 l 660 856 l 79 856 l 79 972 l 825 972 l 825 856 l 228 122 l 228 117 l 839 117 l 839 0 l 63 0 l 63 117 z "},"_":{"ha":625,"x_min":-28,"x_max":653,"o":"m -28 -87 l 653 -87 l 653 -196 l -28 -196 l -28 -87 z "},"a":{"ha":881,"x_min":76,"x_max":853,"o":"m 401 -14 q 276 -3 335 -14 q 172 32 217 8 q 102 94 128 56 q 76 190 76 133 q 102 285 76 246 q 172 348 128 324 q 272 383 215 372 q 392 394 329 394 q 495 384 450 394 q 572 361 540 374 q 636 328 608 346 l 636 435 q 625 492 636 465 q 590 540 614 519 q 526 572 565 560 q 432 583 488 583 q 278 553 328 583 q 228 472 228 524 l 108 472 q 136 574 110 532 q 206 643 163 617 q 308 682 250 669 q 432 694 367 694 q 559 678 500 694 q 661 630 618 663 q 729 549 704 597 q 756 435 754 500 l 756 188 q 770 114 756 132 q 814 96 785 96 q 843 100 832 96 q 853 104 849 101 l 853 -3 q 838 -8 846 -6 q 819 -12 831 -11 q 792 -14 807 -14 q 719 -1 747 -14 q 676 28 692 13 q 650 69 658 46 l 644 69 q 589 28 624 46 q 514 -1 560 13 q 401 -14 468 -14 m 419 97 q 514 105 474 97 q 581 123 554 113 q 620 142 607 133 q 636 153 633 150 l 636 231 q 620 241 633 232 q 581 259 607 250 q 514 276 554 268 q 419 283 474 283 q 338 280 378 283 q 267 266 299 276 q 217 238 236 256 q 199 190 199 219 q 217 143 199 161 q 267 115 236 125 q 338 101 299 104 q 419 97 378 97 z "},"b":{"ha":928,"x_min":104,"x_max":851,"o":"m 490 -14 q 371 3 419 -14 q 290 43 322 21 q 229 101 254 68 l 224 101 l 224 0 l 104 0 l 104 972 l 224 972 l 224 579 l 229 579 q 290 636 254 611 q 371 676 322 658 q 490 694 419 694 q 631 669 565 694 q 746 599 697 644 q 823 487 794 553 q 851 340 851 421 q 823 193 851 258 q 746 82 794 128 q 631 11 697 36 q 490 -14 565 -14 m 476 97 q 581 116 535 97 q 661 167 628 135 q 712 243 694 199 q 729 340 729 288 q 712 437 729 392 q 661 514 694 482 q 581 565 628 546 q 476 583 535 583 q 373 565 419 583 q 293 515 326 547 q 242 439 260 483 q 224 340 224 394 q 241 243 224 288 q 292 167 258 199 q 372 116 325 135 q 476 97 418 97 z "},"c":{"ha":888,"x_min":76,"x_max":811,"o":"m 450 -12 q 301 13 369 -12 q 183 83 233 38 q 105 194 133 129 q 76 342 76 260 q 105 488 76 422 q 183 599 133 553 q 301 669 233 644 q 450 694 369 694 q 617 663 549 694 q 729 587 686 631 q 792 495 772 543 q 811 417 811 447 l 688 417 q 647 500 676 464 q 576 558 622 532 q 450 583 529 583 q 345 565 392 583 q 266 514 299 546 q 216 438 233 482 q 199 342 199 393 q 216 244 199 289 q 266 168 233 200 q 345 117 299 136 q 450 99 392 99 q 576 124 529 99 q 647 182 622 150 q 688 265 676 218 l 811 265 q 792 186 811 233 q 729 95 772 139 q 617 19 686 51 q 450 -12 549 -12 z "},"d":{"ha":928,"x_min":76,"x_max":824,"o":"m 438 -14 q 297 11 363 -14 q 182 82 231 36 q 105 193 133 128 q 76 340 76 258 q 105 487 76 421 q 182 599 133 553 q 297 669 231 644 q 438 694 363 694 q 556 676 507 694 q 638 636 606 658 q 699 579 674 611 l 704 579 l 704 972 l 824 972 l 824 0 l 704 0 l 704 101 l 699 101 q 638 43 674 68 q 556 3 606 21 q 438 -14 507 -14 m 451 97 q 556 116 510 97 q 636 167 603 135 q 687 243 669 199 q 704 340 704 288 q 686 439 704 394 q 635 515 668 483 q 555 565 601 547 q 451 583 508 583 q 347 565 393 583 q 267 514 300 546 q 216 437 233 482 q 199 340 199 392 q 216 243 199 288 q 267 167 233 199 q 347 116 300 135 q 451 97 393 97 z "},"e":{"ha":900,"x_min":76,"x_max":824,"o":"m 457 -14 q 304 11 374 -14 q 184 82 235 36 q 105 193 133 128 q 76 340 76 258 q 105 487 76 421 q 183 599 133 553 q 301 669 233 644 q 450 694 369 694 q 599 669 531 694 q 717 599 667 644 q 795 487 767 553 q 824 340 824 421 q 823 317 824 328 q 821 299 822 306 q 819 283 819 290 l 204 283 q 219 228 204 260 q 266 167 235 196 q 344 117 297 138 q 457 97 392 97 q 554 111 515 97 q 618 142 593 125 q 664 188 646 161 l 804 188 q 736 86 782 131 q 630 17 697 49 q 457 -14 563 -14 m 697 392 q 682 450 697 417 q 636 513 667 483 q 559 563 606 542 q 450 583 513 583 q 341 563 388 583 q 264 513 294 542 q 218 450 233 483 q 203 392 203 417 l 697 392 z "},"f":{"ha":542,"x_min":42,"x_max":569,"o":"m 156 572 l 42 572 l 42 639 l 156 681 l 156 724 q 176 841 156 792 q 231 922 196 890 q 316 970 267 954 q 425 986 365 986 q 483 980 457 986 q 529 967 510 974 q 569 949 551 958 l 569 842 q 538 861 556 853 q 499 875 522 868 q 446 882 475 882 q 377 874 408 882 q 323 846 346 865 q 288 792 300 826 q 275 708 275 758 l 275 681 l 475 681 l 475 572 l 275 572 l 275 0 l 156 0 l 156 572 z "},"g":{"ha":813,"x_min":35,"x_max":778,"o":"m 385 -292 q 246 -278 310 -292 q 135 -240 182 -265 q 61 -174 88 -214 q 35 -82 35 -135 q 55 -1 35 -33 q 100 51 75 32 q 165 89 128 75 l 165 93 q 131 113 146 100 q 106 140 117 124 q 96 183 96 157 q 109 233 96 214 q 139 264 122 253 q 183 285 158 278 l 183 289 q 132 328 154 303 q 97 383 113 349 q 79 467 81 417 q 101 565 78 522 q 167 636 125 607 q 264 680 208 665 q 385 694 319 694 l 778 694 l 778 590 l 649 590 l 649 586 q 669 558 660 575 q 683 521 676 543 q 690 467 690 499 q 667 369 690 411 q 602 297 643 326 q 505 253 561 268 q 385 239 449 239 q 324 238 356 239 q 267 231 293 236 q 225 214 242 225 q 208 183 208 203 q 223 153 208 164 q 262 137 238 143 q 318 129 286 131 q 385 128 350 128 q 524 115 460 128 q 635 76 588 101 q 708 10 682 50 q 735 -82 735 -29 q 708 -174 735 -135 q 635 -240 682 -214 q 524 -278 588 -265 q 385 -292 460 -292 m 385 -181 q 552 -155 492 -181 q 613 -82 613 -129 q 552 -9 613 -35 q 385 17 492 17 q 217 -9 278 17 q 157 -82 157 -35 q 217 -155 157 -129 q 385 -181 278 -181 m 385 343 q 519 377 471 343 q 568 467 568 411 q 519 556 568 522 q 385 590 471 590 q 250 556 299 590 q 201 467 201 522 q 250 377 201 411 q 385 343 299 343 z "},"h":{"ha":885,"x_min":104,"x_max":788,"o":"m 104 972 l 224 972 l 224 576 l 231 576 q 285 635 250 610 q 361 676 314 657 q 481 694 408 694 q 597 676 542 694 q 695 619 653 658 q 763 522 738 581 q 788 379 788 463 l 788 0 l 668 0 l 668 351 q 651 458 668 414 q 605 530 635 501 q 534 571 575 558 q 446 583 493 583 q 349 566 390 583 q 279 518 307 549 q 238 444 251 488 q 224 351 224 401 l 224 0 l 104 0 l 104 972 z "},"i":{"ha":328,"x_min":90,"x_max":238,"o":"m 104 681 l 224 681 l 224 0 l 104 0 l 104 681 m 164 853 q 110 872 131 853 q 90 919 90 890 q 110 967 90 949 q 164 986 131 986 q 217 967 197 986 q 238 919 238 949 q 217 872 238 890 q 164 853 197 853 z "},"j":{"ha":344,"x_min":-83,"x_max":254,"o":"m 11 -292 q -57 -285 -29 -292 q -83 -276 -72 -281 l -83 -172 q -62 -181 -74 -176 q -14 -187 -42 -187 q 43 -181 18 -187 q 85 -156 68 -174 q 112 -105 103 -137 q 121 -22 121 -72 l 121 681 l 240 681 l 240 -37 q 224 -157 240 -108 q 178 -235 208 -206 q 105 -278 147 -265 q 11 -292 63 -292 m 181 853 q 127 872 147 853 q 107 919 107 890 q 127 967 107 949 q 181 986 147 986 q 234 967 214 986 q 254 919 254 949 q 234 872 254 890 q 181 853 214 853 z "},"k":{"ha":765,"x_min":104,"x_max":765,"o":"m 104 972 l 224 972 l 224 356 l 583 681 l 742 681 l 376 351 l 765 0 l 607 0 l 224 346 l 224 0 l 104 0 l 104 972 z "},"l":{"ha":328,"x_min":104,"x_max":224,"o":"m 104 972 l 224 972 l 224 0 l 104 0 l 104 972 z "},"m":{"ha":1265,"x_min":104,"x_max":1168,"o":"m 104 681 l 224 681 l 224 576 l 231 576 q 267 635 242 610 q 328 676 289 657 q 435 694 368 694 q 560 666 504 694 q 651 576 617 638 l 660 576 q 703 635 674 610 q 770 676 728 657 q 879 694 813 694 q 999 676 946 694 q 1090 619 1053 658 q 1148 522 1128 581 q 1168 379 1168 463 l 1168 0 l 1049 0 l 1049 351 q 1003 530 1049 476 q 872 583 957 583 q 788 566 822 583 q 734 518 754 549 q 705 444 714 488 q 696 351 696 401 l 696 0 l 576 0 l 576 351 q 531 530 576 476 q 400 583 485 583 q 316 566 350 583 q 262 518 282 549 q 233 444 242 488 q 224 351 224 401 l 224 0 l 104 0 l 104 681 z "},"n":{"ha":885,"x_min":104,"x_max":788,"o":"m 104 681 l 224 681 l 224 576 l 231 576 q 285 635 250 610 q 361 676 314 657 q 481 694 408 694 q 597 676 542 694 q 695 619 653 658 q 763 522 738 581 q 788 379 788 463 l 788 0 l 668 0 l 668 351 q 651 458 668 414 q 605 530 635 501 q 534 571 575 558 q 446 583 493 583 q 349 566 390 583 q 279 518 307 549 q 238 444 251 488 q 224 351 224 401 l 224 0 l 104 0 l 104 681 z "},"o":{"ha":900,"x_min":76,"x_max":824,"o":"m 450 -14 q 301 11 369 -14 q 183 82 233 36 q 105 193 133 128 q 76 340 76 258 q 105 487 76 421 q 183 599 133 553 q 301 669 233 644 q 450 694 369 694 q 599 669 531 694 q 717 599 667 644 q 795 487 767 553 q 824 340 824 421 q 795 193 824 258 q 717 82 767 128 q 599 11 667 36 q 450 -14 531 -14 m 450 97 q 555 116 508 97 q 634 167 601 135 q 684 243 667 199 q 701 340 701 288 q 684 437 701 392 q 634 514 667 482 q 555 565 601 546 q 450 583 508 583 q 345 565 392 583 q 266 514 299 546 q 216 437 233 482 q 199 340 199 392 q 216 243 199 288 q 266 167 233 199 q 345 116 299 135 q 450 97 392 97 z "},"p":{"ha":928,"x_min":104,"x_max":851,"o":"m 104 681 l 224 681 l 224 579 l 229 579 q 290 636 254 611 q 371 676 322 658 q 490 694 419 694 q 631 669 565 694 q 746 599 697 644 q 823 487 794 553 q 851 340 851 421 q 823 193 851 258 q 746 82 794 128 q 631 11 697 36 q 490 -14 565 -14 q 371 3 419 -14 q 290 43 322 21 q 229 101 254 68 l 224 101 l 224 -278 l 104 -278 l 104 681 m 476 97 q 581 116 535 97 q 661 167 628 135 q 712 243 694 199 q 729 340 729 288 q 712 437 729 392 q 661 514 694 482 q 581 565 628 546 q 476 583 535 583 q 372 565 418 583 q 292 514 325 546 q 241 437 258 482 q 224 340 224 392 q 242 242 224 286 q 293 165 260 197 q 373 115 326 133 q 476 97 419 97 z "},"q":{"ha":928,"x_min":76,"x_max":824,"o":"m 704 101 l 699 101 q 638 43 674 68 q 556 3 606 21 q 438 -14 507 -14 q 297 11 363 -14 q 182 82 231 36 q 105 193 133 128 q 76 340 76 258 q 105 487 76 421 q 182 599 133 553 q 297 669 231 644 q 438 694 363 694 q 556 676 507 694 q 638 636 606 658 q 699 579 674 611 l 704 579 l 704 681 l 824 681 l 824 -278 l 704 -278 l 704 101 m 451 97 q 555 115 508 97 q 635 165 601 133 q 686 242 668 197 q 704 340 704 286 q 687 437 704 392 q 636 514 669 482 q 556 565 603 546 q 451 583 510 583 q 347 565 393 583 q 267 514 300 546 q 216 437 233 482 q 199 340 199 392 q 216 243 199 288 q 267 167 233 199 q 347 116 300 135 q 451 97 393 97 z "},"r":{"ha":604,"x_min":104,"x_max":563,"o":"m 104 681 l 224 681 l 224 549 l 231 549 q 285 621 250 589 q 361 672 314 649 q 481 694 408 694 q 514 693 499 694 q 540 689 529 692 q 563 685 553 686 l 563 554 q 535 561 550 557 q 502 566 521 564 q 460 568 483 568 q 359 549 403 568 q 285 496 315 529 q 240 418 256 463 q 224 324 224 374 l 224 0 l 104 0 l 104 681 z "},"s":{"ha":817,"x_min":76,"x_max":740,"o":"m 408 -14 q 283 -1 343 -14 q 178 39 224 11 q 104 112 132 67 q 76 222 76 157 l 76 244 l 199 244 l 199 222 q 408 97 199 97 q 618 201 618 97 q 579 263 618 246 q 482 288 540 281 q 355 299 424 294 q 228 321 286 304 q 131 376 169 338 q 92 489 92 414 q 116 582 92 543 q 183 646 140 621 q 283 683 226 671 q 406 694 340 694 q 528 682 471 694 q 628 641 585 669 q 695 567 671 613 q 719 458 719 522 l 597 458 q 553 552 597 521 q 406 583 510 583 q 256 557 299 583 q 214 489 214 531 q 237 440 214 457 q 297 415 260 424 q 381 403 333 407 q 477 395 428 400 q 574 381 526 390 q 658 349 621 371 q 717 292 694 328 q 740 201 740 257 q 713 101 740 142 q 639 34 685 60 q 533 -3 593 8 q 408 -14 474 -14 z "},"t":{"ha":604,"x_min":49,"x_max":556,"o":"m 421 -14 q 316 1 364 -14 q 234 49 268 17 q 181 131 200 82 q 163 249 163 181 l 163 572 l 49 572 l 49 681 l 163 681 l 163 833 l 282 833 l 282 681 l 535 681 l 535 572 l 282 572 l 282 264 q 294 180 282 214 q 326 126 306 146 q 375 99 347 107 q 435 90 403 90 q 487 94 464 90 q 525 106 510 99 q 556 122 543 113 l 556 14 q 519 0 540 6 q 476 -10 501 -6 q 421 -14 451 -14 z "},"u":{"ha":892,"x_min":104,"x_max":788,"o":"m 411 -14 q 294 4 350 -14 q 197 61 239 22 q 129 159 154 100 q 104 301 104 218 l 104 681 l 224 681 l 224 329 q 240 223 224 267 q 287 151 257 179 q 358 110 317 122 q 446 97 399 97 q 543 115 501 97 q 613 163 585 132 q 654 236 640 193 q 668 329 668 279 l 668 681 l 788 681 l 788 0 l 668 0 l 668 104 l 661 104 q 607 44 642 69 q 530 4 578 22 q 411 -14 482 -14 z "},"v":{"ha":775,"x_min":21,"x_max":754,"o":"m 21 681 l 146 681 l 385 94 l 390 94 l 629 681 l 754 681 l 476 0 l 299 0 l 21 681 z "},"w":{"ha":1133,"x_min":28,"x_max":1106,"o":"m 28 681 l 149 681 l 308 131 l 314 131 l 489 681 l 644 681 l 819 131 l 825 131 l 985 681 l 1106 681 l 904 0 l 744 0 l 569 553 l 564 553 l 389 0 l 229 0 l 28 681 z "},"x":{"ha":713,"x_min":0,"x_max":713,"o":"m 286 357 l 26 681 l 165 681 l 356 443 l 547 681 l 686 681 l 425 357 l 713 0 l 574 0 l 356 271 l 139 0 l 0 0 l 286 357 z "},"y":{"ha":788,"x_min":14,"x_max":774,"o":"m 200 -292 q 132 -285 160 -292 q 106 -278 117 -282 l 106 -174 q 129 -181 115 -178 q 189 -187 154 -187 q 240 -177 218 -187 q 277 -147 261 -167 q 306 -101 293 -128 q 333 -39 319 -74 l 343 -14 l 14 681 l 142 681 l 406 133 l 410 133 l 644 681 l 774 681 l 460 -39 q 411 -144 435 -97 q 359 -224 388 -192 q 292 -274 331 -257 q 200 -292 254 -292 z "},"z":{"ha":756,"x_min":56,"x_max":700,"o":"m 56 108 l 525 569 l 525 572 l 79 572 l 79 681 l 686 681 l 686 572 l 217 111 l 217 108 l 700 108 l 700 0 l 56 0 l 56 108 z "},"«":{"ha":642,"x_min":42,"x_max":600,"o":"m 42 336 l 229 594 l 360 594 l 169 336 l 360 78 l 229 78 l 42 336 m 282 336 l 469 594 l 600 594 l 410 336 l 600 78 l 469 78 l 282 336 z "},"»":{"ha":642,"x_min":42,"x_max":600,"o":"m 232 336 l 42 594 l 172 594 l 360 336 l 172 78 l 42 78 l 232 336 m 472 336 l 282 594 l 413 594 l 600 336 l 413 78 l 282 78 l 472 336 z "},"Ё":{"ha":939,"x_min":125,"x_max":856,"o":"m 125 972 l 856 972 l 856 856 l 256 856 l 256 558 l 772 558 l 772 442 l 256 442 l 256 117 l 856 117 l 856 0 l 125 0 l 125 972 m 369 1097 q 317 1113 338 1097 q 297 1164 297 1129 q 317 1210 297 1194 q 369 1226 338 1226 q 421 1210 401 1226 q 440 1164 440 1194 q 421 1113 440 1129 q 369 1097 401 1097 m 633 1097 q 581 1113 601 1097 q 561 1164 561 1129 q 581 1210 561 1194 q 633 1226 601 1226 q 685 1210 665 1226 q 704 1164 704 1194 q 685 1113 704 1129 q 633 1097 665 1097 z "},"А":{"ha":1010,"x_min":21,"x_max":989,"o":"m 418 972 l 592 972 l 989 0 l 851 0 l 764 214 l 246 214 l 158 0 l 21 0 l 418 972 m 715 331 l 508 854 l 501 854 l 293 331 l 715 331 z "},"Б":{"ha":1003,"x_min":125,"x_max":919,"o":"m 125 972 l 824 972 l 824 856 l 256 856 l 256 603 l 538 603 q 824 527 728 603 q 919 301 919 451 q 824 76 919 151 q 538 0 728 0 l 125 0 l 125 972 m 538 117 q 719 160 656 117 q 783 301 783 204 q 719 442 783 399 q 538 486 656 486 l 256 486 l 256 117 l 538 117 z "},"В":{"ha":1003,"x_min":125,"x_max":919,"o":"m 125 972 l 538 972 q 783 907 699 972 q 867 704 867 842 q 845 610 867 646 q 797 551 824 574 q 728 513 767 526 l 728 507 q 824 468 781 496 q 858 439 842 456 q 889 399 875 422 q 911 345 903 375 q 919 276 919 315 q 832 69 919 139 q 563 0 744 0 l 125 0 l 125 972 m 563 117 q 728 154 672 117 q 783 276 783 192 q 728 399 783 361 q 563 438 672 438 l 256 438 l 256 117 l 563 117 m 538 551 q 678 585 626 551 q 731 704 731 619 q 678 822 731 789 q 538 856 626 856 l 256 856 l 256 551 l 538 551 z "},"Г":{"ha":853,"x_min":125,"x_max":825,"o":"m 125 972 l 825 972 l 825 856 l 256 856 l 256 0 l 125 0 l 125 972 z "},"Д":{"ha":1082,"x_min":14,"x_max":1040,"o":"m 14 117 l 67 117 q 147 167 115 117 q 190 333 178 218 l 265 972 l 903 972 l 903 117 l 1040 117 l 1040 -236 l 910 -236 l 910 0 l 144 0 l 144 -236 l 14 -236 l 14 117 m 772 117 l 772 856 l 383 856 l 317 306 q 296 204 308 240 q 271 149 283 168 q 240 119 256 126 l 240 117 l 772 117 z "},"Е":{"ha":939,"x_min":125,"x_max":856,"o":"m 125 972 l 856 972 l 856 856 l 256 856 l 256 558 l 772 558 l 772 442 l 256 442 l 256 117 l 856 117 l 856 0 l 125 0 l 125 972 z "},"Ж":{"ha":1400,"x_min":7,"x_max":1393,"o":"m 478 494 l 36 972 l 199 972 l 635 503 l 635 972 l 765 972 l 765 503 l 1201 972 l 1364 972 l 922 494 l 1393 0 l 1231 0 l 765 481 l 765 0 l 635 0 l 635 481 l 169 0 l 7 0 l 478 494 z "},"З":{"ha":964,"x_min":83,"x_max":881,"o":"m 482 -14 q 323 6 396 -14 q 197 64 250 26 q 113 154 143 101 q 83 272 83 207 l 83 325 l 214 325 l 214 272 q 234 199 214 231 q 290 147 254 168 q 375 116 326 126 q 482 106 424 106 q 589 116 540 106 q 674 147 638 126 q 730 199 710 168 q 750 272 750 231 q 678 398 750 356 q 490 440 607 440 l 372 440 l 372 556 l 493 556 q 667 600 611 556 q 722 713 722 644 q 656 824 722 781 q 474 867 590 867 q 291 824 357 867 q 225 703 225 782 l 225 675 l 94 675 l 94 703 q 122 817 94 765 q 198 907 149 869 q 317 965 247 944 q 474 986 388 986 q 630 965 560 986 q 749 908 700 944 q 826 821 799 871 q 853 713 853 771 q 829 610 853 650 q 778 547 806 571 q 703 507 744 521 l 703 499 q 792 457 753 485 q 853 388 825 432 q 881 272 881 344 q 851 153 881 206 q 767 63 821 100 q 641 6 714 26 q 482 -14 568 -14 z "},"И":{"ha":1082,"x_min":125,"x_max":957,"o":"m 125 972 l 256 972 l 256 142 l 260 142 l 769 972 l 957 972 l 957 0 l 826 0 l 826 831 l 822 831 l 313 0 l 125 0 l 125 972 z "},"Й":{"ha":1082,"x_min":125,"x_max":957,"o":"m 125 972 l 256 972 l 256 142 l 260 142 l 769 972 l 957 972 l 957 0 l 826 0 l 826 831 l 822 831 l 313 0 l 125 0 l 125 972 m 546 1097 q 371 1144 432 1097 q 310 1282 310 1190 l 310 1290 l 415 1290 l 415 1282 q 445 1215 415 1242 q 546 1189 475 1189 q 647 1215 617 1189 q 676 1282 676 1242 l 676 1290 l 782 1290 l 782 1282 q 721 1144 782 1190 q 546 1097 660 1097 z "},"К":{"ha":911,"x_min":125,"x_max":911,"o":"m 125 972 l 256 972 l 256 503 l 718 972 l 881 972 l 413 494 l 911 0 l 749 0 l 256 481 l 256 0 l 125 0 l 125 972 z "},"Л":{"ha":1044,"x_min":14,"x_max":919,"o":"m 83 -14 q 56 -12 68 -14 q 33 -8 43 -11 q 14 -3 22 -6 l 14 118 q 26 115 19 117 q 54 113 40 113 q 117 128 93 113 q 155 171 140 143 q 178 240 169 199 q 193 333 186 281 l 276 972 l 919 972 l 919 0 l 789 0 l 789 856 l 396 856 l 326 333 q 297 176 314 242 q 253 68 281 110 q 185 6 226 26 q 83 -14 144 -14 z "},"М":{"ha":1258,"x_min":125,"x_max":1133,"o":"m 125 972 l 325 972 l 626 382 l 632 382 l 933 972 l 1133 972 l 1133 0 l 1003 0 l 1003 819 l 997 819 l 711 260 l 547 260 l 261 819 l 256 819 l 256 0 l 125 0 l 125 972 z "},"Н":{"ha":1079,"x_min":125,"x_max":954,"o":"m 125 972 l 256 972 l 256 564 l 824 564 l 824 972 l 954 972 l 954 0 l 824 0 l 824 447 l 256 447 l 256 0 l 125 0 l 125 972 z "},"О":{"ha":1167,"x_min":97,"x_max":1069,"o":"m 583 -14 q 381 23 471 -14 q 228 126 290 60 q 131 285 165 193 q 97 486 97 376 q 131 688 97 596 q 228 846 165 779 q 381 949 290 913 q 583 986 471 986 q 786 949 696 986 q 939 846 876 913 q 1035 688 1001 779 q 1069 486 1069 596 q 1035 285 1069 376 q 939 126 1001 193 q 786 23 876 60 q 583 -14 696 -14 m 583 106 q 732 135 667 106 q 842 215 797 164 q 910 336 888 267 q 933 486 933 406 q 910 636 933 567 q 842 757 888 706 q 732 838 797 808 q 583 867 667 867 q 435 838 500 867 q 324 757 369 808 q 256 636 279 706 q 233 486 233 567 q 256 336 233 406 q 324 215 279 267 q 435 135 369 164 q 583 106 500 106 z "},"П":{"ha":1067,"x_min":125,"x_max":942,"o":"m 125 972 l 942 972 l 942 0 l 811 0 l 811 856 l 256 856 l 256 0 l 125 0 l 125 972 z "},"Р":{"ha":982,"x_min":125,"x_max":885,"o":"m 125 972 l 496 972 q 787 884 689 972 q 885 628 885 796 q 787 372 885 460 q 496 283 689 283 l 256 283 l 256 0 l 125 0 l 125 972 m 496 400 q 683 456 617 400 q 749 628 749 511 q 683 800 749 744 q 496 856 617 856 l 256 856 l 256 400 l 496 400 z "},"С":{"ha":1144,"x_min":97,"x_max":1054,"o":"m 583 -14 q 381 23 471 -14 q 228 126 290 60 q 131 285 165 193 q 97 486 97 376 q 131 688 97 596 q 228 846 165 779 q 381 949 290 913 q 583 986 471 986 q 801 943 711 986 q 947 839 890 900 q 1028 709 1003 778 q 1054 590 1054 640 l 919 590 q 864 728 904 667 q 821 779 846 754 q 762 824 796 804 q 683 855 728 843 q 583 867 639 867 q 435 838 500 867 q 324 757 369 808 q 256 636 279 706 q 233 486 233 567 q 256 336 233 406 q 324 215 279 267 q 435 135 369 164 q 583 106 500 106 q 683 117 639 106 q 762 149 728 129 q 821 192 796 168 q 864 243 846 217 q 919 382 904 304 l 1054 382 q 1028 263 1054 332 q 947 133 1003 194 q 801 29 890 72 q 583 -14 711 -14 z "},"Т":{"ha":882,"x_min":28,"x_max":854,"o":"m 376 856 l 28 856 l 28 972 l 854 972 l 854 856 l 507 856 l 507 0 l 376 0 l 376 856 z "},"У":{"ha":942,"x_min":7,"x_max":942,"o":"m 174 117 l 244 117 q 301 123 278 117 q 341 143 324 129 q 374 180 358 157 q 407 236 389 203 l 428 275 l 7 972 l 150 972 l 494 413 l 501 413 l 799 972 l 942 972 l 550 236 q 492 137 521 181 q 428 63 463 93 q 353 16 394 32 q 256 0 311 0 l 174 0 l 174 117 z "},"Ф":{"ha":1308,"x_min":83,"x_max":1225,"o":"m 589 83 q 386 109 479 85 q 226 182 293 133 q 121 306 158 231 q 83 486 83 382 q 121 666 83 590 q 226 790 158 742 q 386 863 293 839 q 589 889 479 886 l 589 986 l 719 986 l 719 889 q 922 863 829 886 q 1083 790 1015 839 q 1188 666 1150 742 q 1225 486 1225 590 q 1188 306 1225 382 q 1083 182 1150 231 q 922 109 1015 133 q 719 83 829 85 l 719 -14 l 589 -14 l 589 83 m 589 769 q 440 751 507 767 q 323 701 372 735 q 247 615 274 668 q 219 486 219 561 q 247 358 219 411 q 323 271 274 304 q 440 221 372 238 q 589 203 507 204 l 589 769 m 719 203 q 868 221 800 204 q 985 271 936 238 q 1062 358 1035 304 q 1089 486 1089 411 q 1062 615 1089 561 q 985 701 1035 668 q 868 751 936 735 q 719 769 800 767 l 719 203 z "},"Х":{"ha":871,"x_min":7,"x_max":864,"o":"m 361 503 l 31 972 l 179 972 l 435 608 l 692 972 l 840 972 l 510 503 l 864 0 l 715 0 l 435 397 l 156 0 l 7 0 l 361 503 z "},"Ц":{"ha":1078,"x_min":125,"x_max":1036,"o":"m 906 0 l 125 0 l 125 972 l 256 972 l 256 117 l 768 117 l 768 972 l 899 972 l 899 117 l 1036 117 l 1036 -236 l 906 -236 l 906 0 z "},"Ч":{"ha":979,"x_min":111,"x_max":854,"o":"m 724 324 l 522 324 q 338 344 415 324 q 210 410 260 365 q 135 525 160 456 q 111 690 111 594 l 111 972 l 242 972 l 242 690 q 310 500 242 560 q 522 440 379 440 l 724 440 l 724 972 l 854 972 l 854 0 l 724 0 l 724 324 z "},"Ш":{"ha":1372,"x_min":125,"x_max":1247,"o":"m 125 972 l 256 972 l 256 117 l 621 117 l 621 972 l 751 972 l 751 117 l 1117 117 l 1117 972 l 1247 972 l 1247 0 l 125 0 l 125 972 z "},"Щ":{"ha":1426,"x_min":125,"x_max":1385,"o":"m 1254 0 l 125 0 l 125 972 l 256 972 l 256 117 l 621 117 l 621 972 l 751 972 l 751 117 l 1117 117 l 1117 972 l 1247 972 l 1247 117 l 1385 117 l 1385 -236 l 1254 -236 l 1254 0 z "},"Ъ":{"ha":1132,"x_min":0,"x_max":1042,"o":"m 257 856 l 0 856 l 0 972 l 388 972 l 388 647 l 653 647 q 944 565 846 647 q 1042 324 1042 482 q 944 83 1042 165 q 653 0 846 0 l 257 0 l 257 856 m 653 117 q 840 167 774 117 q 906 324 906 218 q 840 480 906 429 q 653 531 774 531 l 388 531 l 388 117 l 653 117 z "},"Ы":{"ha":1276,"x_min":125,"x_max":1151,"o":"m 125 972 l 256 972 l 256 647 l 493 647 q 784 565 686 647 q 882 324 882 482 q 784 83 882 165 q 493 0 686 0 l 125 0 l 125 972 m 493 117 q 680 167 614 117 q 746 324 746 218 q 680 480 746 429 q 493 531 614 531 l 256 531 l 256 117 l 493 117 m 1021 972 l 1151 972 l 1151 0 l 1021 0 l 1021 972 z "},"Ь":{"ha":1000,"x_min":125,"x_max":910,"o":"m 125 972 l 256 972 l 256 647 l 521 647 q 812 565 714 647 q 910 324 910 482 q 812 83 910 165 q 521 0 714 0 l 125 0 l 125 972 m 521 117 q 708 167 642 117 q 774 324 774 218 q 708 480 774 429 q 521 531 642 531 l 256 531 l 256 117 l 521 117 z "},"Э":{"ha":1144,"x_min":90,"x_max":1047,"o":"m 561 -14 q 344 29 433 -14 q 198 133 254 72 q 116 263 142 194 q 90 382 90 332 l 225 382 q 281 243 239 304 q 322 192 297 217 q 382 149 347 168 q 460 117 417 129 q 561 106 504 106 q 715 138 650 106 q 824 219 781 171 q 889 323 868 267 q 910 428 910 379 l 503 428 l 503 544 l 910 544 q 888 651 910 594 q 823 755 867 707 q 714 835 779 803 q 561 867 649 867 q 460 855 504 867 q 382 824 417 843 q 322 779 347 804 q 281 728 297 754 q 225 590 239 667 l 90 590 q 116 709 90 640 q 198 839 142 778 q 344 943 254 900 q 561 986 433 986 q 764 949 674 986 q 917 846 854 913 q 1013 688 979 779 q 1047 486 1047 596 q 1013 285 1047 376 q 917 126 979 193 q 764 23 854 60 q 561 -14 674 -14 z "},"Ю":{"ha":1404,"x_min":125,"x_max":1307,"o":"m 863 -14 q 657 30 740 -14 q 522 140 574 74 q 447 285 471 207 q 422 429 424 363 l 256 429 l 256 0 l 125 0 l 125 972 l 256 972 l 256 546 l 424 546 q 449 685 425 608 q 526 828 474 761 q 660 941 578 896 q 863 986 743 986 q 1055 947 972 986 q 1194 841 1138 908 q 1278 682 1250 774 q 1307 486 1307 590 q 1278 290 1307 382 q 1194 131 1250 199 q 1056 25 1139 64 q 863 -14 972 -14 m 863 103 q 1001 134 943 103 q 1097 219 1060 165 q 1153 342 1135 272 q 1171 486 1171 411 q 1153 631 1171 561 q 1097 753 1135 700 q 1001 838 1060 807 q 863 869 943 869 q 722 838 781 869 q 626 753 664 807 q 572 631 589 700 q 554 486 554 561 q 572 342 554 411 q 626 219 589 272 q 722 134 664 165 q 863 103 781 103 z "},"Я":{"ha":968,"x_min":83,"x_max":843,"o":"m 301 371 q 265 383 296 371 q 197 428 233 396 q 132 518 161 461 q 103 663 103 575 q 126 788 103 731 q 193 886 150 846 q 298 949 236 926 q 438 972 360 972 l 843 972 l 843 0 l 713 0 l 713 347 l 433 347 l 231 0 l 83 0 l 301 371 m 713 464 l 713 856 l 438 856 q 359 841 396 856 q 295 801 322 826 q 253 739 268 775 q 238 660 238 703 q 251 580 238 615 q 290 518 265 544 q 351 478 315 492 q 429 464 386 464 l 713 464 z "},"а":{"ha":881,"x_min":76,"x_max":853,"o":"m 401 -14 q 276 -3 335 -14 q 172 32 217 8 q 102 94 128 56 q 76 190 76 133 q 102 285 76 246 q 172 348 128 324 q 272 383 215 372 q 392 394 329 394 q 495 384 450 394 q 572 361 540 374 q 636 328 608 346 l 636 435 q 625 492 636 465 q 590 540 614 519 q 526 572 565 560 q 432 583 488 583 q 278 553 328 583 q 228 472 228 524 l 108 472 q 136 574 110 532 q 206 643 163 617 q 308 682 250 669 q 432 694 367 694 q 559 678 500 694 q 661 630 618 663 q 729 549 704 597 q 756 435 754 500 l 756 188 q 770 114 756 132 q 814 96 785 96 q 843 100 832 96 q 853 104 849 101 l 853 -3 q 838 -8 846 -6 q 819 -12 831 -11 q 792 -14 807 -14 q 719 -1 747 -14 q 676 28 692 13 q 650 69 658 46 l 644 69 q 589 28 624 46 q 514 -1 560 13 q 401 -14 468 -14 m 419 97 q 514 105 474 97 q 581 123 554 113 q 620 142 607 133 q 636 153 633 150 l 636 231 q 620 241 633 232 q 581 259 607 250 q 514 276 554 268 q 419 283 474 283 q 338 280 378 283 q 267 266 299 276 q 217 238 236 256 q 199 190 199 219 q 217 143 199 161 q 267 115 236 125 q 338 101 299 104 q 419 97 378 97 z "},"б":{"ha":893,"x_min":76,"x_max":817,"o":"m 453 -14 q 299 16 368 -14 q 180 101 229 46 q 103 235 131 157 q 76 408 76 313 l 76 457 q 101 629 76 551 q 173 763 125 707 q 294 849 221 818 q 464 879 367 879 q 585 900 547 879 q 624 972 624 921 l 749 972 q 739 898 749 935 q 701 833 729 861 q 622 786 674 804 q 486 768 571 768 q 343 743 400 768 q 252 678 286 718 q 204 591 218 639 q 190 497 190 543 l 196 497 q 250 564 214 535 q 335 610 282 589 q 472 631 389 631 q 614 607 550 631 q 723 541 678 583 q 792 440 768 499 q 817 310 817 381 q 791 179 817 239 q 717 76 765 119 q 602 10 669 33 q 453 -14 535 -14 m 450 97 q 551 113 506 97 q 628 158 596 129 q 677 225 660 186 q 694 310 694 264 q 677 394 694 356 q 628 460 660 432 q 551 504 596 489 q 450 519 506 519 q 357 503 400 519 q 283 458 314 486 q 233 392 251 431 q 215 310 215 353 q 233 226 215 265 q 283 159 251 188 q 357 114 314 131 q 450 97 400 97 z "},"в":{"ha":833,"x_min":104,"x_max":757,"o":"m 104 681 l 450 681 q 641 636 569 681 q 713 499 713 592 q 695 425 713 451 q 657 383 678 399 q 603 361 632 367 l 603 354 q 679 329 644 349 q 733 281 708 313 q 757 192 757 249 q 688 46 757 92 q 479 0 619 0 l 104 0 l 104 681 m 479 104 q 600 131 565 104 q 635 200 635 157 q 600 269 635 243 q 479 294 565 294 l 224 294 l 224 104 l 479 104 m 464 393 q 561 422 532 396 q 590 486 590 449 q 558 551 590 526 q 450 576 525 576 l 224 576 l 224 393 l 464 393 z "},"г":{"ha":665,"x_min":104,"x_max":651,"o":"m 104 681 l 651 681 l 651 572 l 224 572 l 224 0 l 104 0 l 104 681 z "},"д":{"ha":854,"x_min":7,"x_max":819,"o":"m 7 108 l 57 108 q 122 156 103 108 q 154 306 142 203 l 201 681 l 717 681 l 717 108 l 819 108 l 819 -174 l 700 -174 l 700 0 l 126 0 l 126 -174 l 7 -174 l 7 108 m 597 108 l 597 572 l 306 572 l 265 250 q 250 175 258 201 q 232 133 242 149 q 210 111 221 117 l 210 108 l 597 108 z "},"е":{"ha":900,"x_min":76,"x_max":824,"o":"m 457 -14 q 304 11 374 -14 q 184 82 235 36 q 105 193 133 128 q 76 340 76 258 q 105 487 76 421 q 183 599 133 553 q 301 669 233 644 q 450 694 369 694 q 599 669 531 694 q 717 599 667 644 q 795 487 767 553 q 824 340 824 421 q 823 317 824 328 q 821 299 822 306 q 819 283 819 290 l 204 283 q 219 228 204 260 q 266 167 235 196 q 344 117 297 138 q 457 97 392 97 q 554 111 515 97 q 618 142 593 125 q 664 188 646 161 l 804 188 q 736 86 782 131 q 630 17 697 49 q 457 -14 563 -14 m 697 392 q 682 450 697 417 q 636 513 667 483 q 559 563 606 542 q 450 583 513 583 q 341 563 388 583 q 264 513 294 542 q 218 450 233 483 q 203 392 203 417 l 697 392 z "},"ж":{"ha":1150,"x_min":7,"x_max":1143,"o":"m 369 346 l 33 681 l 189 681 l 515 349 l 515 681 l 635 681 l 635 349 l 961 681 l 1117 681 l 781 346 l 1143 0 l 985 0 l 635 339 l 635 0 l 515 0 l 515 339 l 165 0 l 7 0 l 369 346 z "},"з":{"ha":810,"x_min":69,"x_max":733,"o":"m 401 -14 q 276 -4 336 -14 q 171 31 217 6 q 97 98 125 56 q 69 206 69 140 l 69 219 l 192 219 l 192 206 q 244 120 192 143 q 401 97 297 97 q 611 194 611 97 q 558 269 611 249 q 401 290 506 290 l 296 290 l 296 399 l 422 399 q 555 426 517 401 q 593 492 593 451 q 549 558 593 532 q 397 583 504 583 q 247 552 293 583 q 201 481 201 521 l 201 475 l 79 475 l 79 481 q 104 575 79 535 q 173 642 129 615 q 274 681 217 668 q 397 694 332 694 q 522 683 464 694 q 623 647 581 671 q 690 585 665 622 q 715 496 715 547 q 694 424 715 451 q 650 382 674 397 q 586 356 622 364 l 586 353 q 660 322 626 343 q 710 274 688 304 q 733 194 733 243 q 706 94 733 133 q 632 30 678 54 q 526 -4 586 6 q 401 -14 467 -14 z "},"и":{"ha":874,"x_min":104,"x_max":769,"o":"m 104 681 l 224 681 l 224 136 l 226 136 l 618 681 l 769 681 l 769 0 l 650 0 l 650 544 l 647 544 l 256 0 l 104 0 l 104 681 z "},"й":{"ha":874,"x_min":104,"x_max":769,"o":"m 104 681 l 224 681 l 224 136 l 226 136 l 618 681 l 769 681 l 769 0 l 650 0 l 650 544 l 647 544 l 256 0 l 104 0 l 104 681 m 436 778 q 294 819 343 778 q 244 931 244 860 l 340 931 q 360 880 340 903 q 436 857 381 857 q 512 880 492 857 q 532 931 532 903 l 628 931 q 578 819 628 860 q 436 778 529 778 z "},"к":{"ha":765,"x_min":104,"x_max":765,"o":"m 104 681 l 224 681 l 224 349 l 583 681 l 739 681 l 375 346 l 765 0 l 607 0 l 224 339 l 224 0 l 104 0 l 104 681 z "},"л":{"ha":842,"x_min":7,"x_max":738,"o":"m 75 -14 q 49 -12 61 -14 q 28 -8 38 -11 q 7 -1 17 -6 l 7 113 q 21 108 14 110 q 53 104 33 104 q 97 118 79 104 q 126 156 115 132 q 144 211 138 181 q 156 275 150 242 l 219 681 l 738 681 l 738 0 l 618 0 l 618 572 l 321 572 l 275 275 q 244 135 263 190 q 202 46 226 79 q 146 -1 178 13 q 75 -14 114 -14 z "},"м":{"ha":1006,"x_min":104,"x_max":901,"o":"m 104 681 l 274 681 l 503 264 l 732 681 l 901 681 l 901 0 l 782 0 l 782 532 l 779 532 l 583 176 l 422 176 l 226 532 l 224 532 l 224 0 l 104 0 l 104 681 z "},"н":{"ha":874,"x_min":104,"x_max":769,"o":"m 104 681 l 224 681 l 224 403 l 650 403 l 650 681 l 769 681 l 769 0 l 650 0 l 650 294 l 224 294 l 224 0 l 104 0 l 104 681 z "},"о":{"ha":900,"x_min":76,"x_max":824,"o":"m 450 -14 q 301 11 369 -14 q 183 82 233 36 q 105 193 133 128 q 76 340 76 258 q 105 487 76 421 q 183 599 133 553 q 301 669 233 644 q 450 694 369 694 q 599 669 531 694 q 717 599 667 644 q 795 487 767 553 q 824 340 824 421 q 795 193 824 258 q 717 82 767 128 q 599 11 667 36 q 450 -14 531 -14 m 450 97 q 555 116 508 97 q 634 167 601 135 q 684 243 667 199 q 701 340 701 288 q 684 437 701 392 q 634 514 667 482 q 555 565 601 546 q 450 583 508 583 q 345 565 392 583 q 266 514 299 546 q 216 437 233 482 q 199 340 199 392 q 216 243 199 288 q 266 167 233 199 q 345 116 299 135 q 450 97 392 97 z "},"п":{"ha":861,"x_min":104,"x_max":757,"o":"m 104 681 l 757 681 l 757 0 l 638 0 l 638 572 l 224 572 l 224 0 l 104 0 l 104 681 z "},"р":{"ha":928,"x_min":104,"x_max":851,"o":"m 104 681 l 224 681 l 224 579 l 229 579 q 290 636 254 611 q 371 676 322 658 q 490 694 419 694 q 631 669 565 694 q 746 599 697 644 q 823 487 794 553 q 851 340 851 421 q 823 193 851 258 q 746 82 794 128 q 631 11 697 36 q 490 -14 565 -14 q 371 3 419 -14 q 290 43 322 21 q 229 101 254 68 l 224 101 l 224 -278 l 104 -278 l 104 681 m 476 97 q 581 116 535 97 q 661 167 628 135 q 712 243 694 199 q 729 340 729 288 q 712 437 729 392 q 661 514 694 482 q 581 565 628 546 q 476 583 535 583 q 372 565 418 583 q 292 514 325 546 q 241 437 258 482 q 224 340 224 392 q 242 242 224 286 q 293 165 260 197 q 373 115 326 133 q 476 97 419 97 z "},"с":{"ha":888,"x_min":76,"x_max":811,"o":"m 450 -12 q 301 13 369 -12 q 183 83 233 38 q 105 194 133 129 q 76 342 76 260 q 105 488 76 422 q 183 599 133 553 q 301 669 233 644 q 450 694 369 694 q 617 663 549 694 q 729 587 686 631 q 792 495 772 543 q 811 417 811 447 l 688 417 q 647 500 676 464 q 576 558 622 532 q 450 583 529 583 q 345 565 392 583 q 266 514 299 546 q 216 438 233 482 q 199 342 199 393 q 216 244 199 289 q 266 168 233 200 q 345 117 299 136 q 450 99 392 99 q 576 124 529 99 q 647 182 622 150 q 688 265 676 218 l 811 265 q 792 186 811 233 q 729 95 772 139 q 617 19 686 51 q 450 -12 549 -12 z "},"т":{"ha":711,"x_min":21,"x_max":690,"o":"m 296 0 l 296 572 l 21 572 l 21 681 l 690 681 l 690 572 l 415 572 l 415 -1 l 296 0 z "},"у":{"ha":788,"x_min":14,"x_max":774,"o":"m 200 -292 q 132 -285 160 -292 q 106 -278 117 -282 l 106 -174 q 129 -181 115 -178 q 189 -187 154 -187 q 240 -177 218 -187 q 277 -147 261 -167 q 306 -101 293 -128 q 333 -39 319 -74 l 343 -14 l 14 681 l 142 681 l 406 133 l 410 133 l 644 681 l 774 681 l 460 -39 q 411 -144 435 -97 q 359 -224 388 -192 q 292 -274 331 -257 q 200 -292 254 -292 z "},"ф":{"ha":1064,"x_min":76,"x_max":988,"o":"m 472 -14 q 308 14 382 -12 q 183 86 235 40 q 104 197 132 132 q 76 340 76 261 q 104 484 76 419 q 183 594 132 549 q 308 667 235 640 q 472 694 382 693 l 472 972 l 592 972 l 592 694 q 756 667 682 693 q 881 594 829 640 q 960 484 932 549 q 988 340 988 419 q 960 197 988 261 q 881 86 932 132 q 756 14 829 40 q 592 -14 682 -12 l 592 -278 l 472 -278 l 472 -14 m 472 583 q 352 563 403 582 q 267 510 301 543 q 215 433 232 476 q 199 340 199 390 q 215 247 199 290 q 267 171 232 204 q 352 118 301 138 q 472 97 403 99 l 472 583 m 592 97 q 711 118 660 99 q 797 171 763 138 q 849 247 832 204 q 865 340 865 290 q 849 433 865 390 q 797 510 832 476 q 711 563 763 543 q 592 583 660 582 l 592 97 z "},"х":{"ha":713,"x_min":0,"x_max":713,"o":"m 286 357 l 26 681 l 165 681 l 356 443 l 547 681 l 686 681 l 425 357 l 713 0 l 574 0 l 356 271 l 139 0 l 0 0 l 286 357 z "},"ц":{"ha":869,"x_min":104,"x_max":835,"o":"m 715 0 l 104 0 l 104 681 l 224 681 l 224 108 l 613 108 l 613 681 l 732 681 l 732 108 l 835 108 l 835 -174 l 715 -174 l 715 0 z "},"ч":{"ha":804,"x_min":90,"x_max":700,"o":"m 581 214 l 396 214 q 167 282 244 214 q 90 482 90 350 l 90 676 l 210 676 l 210 482 q 219 416 210 446 q 249 365 228 386 q 307 333 271 344 q 396 322 343 322 l 581 322 l 581 676 l 700 676 l 700 0 l 581 0 l 581 214 z "},"ш":{"ha":1128,"x_min":104,"x_max":1024,"o":"m 104 681 l 224 681 l 224 108 l 504 108 l 504 681 l 624 681 l 624 108 l 904 108 l 904 681 l 1024 681 l 1024 0 l 104 0 l 104 681 z "},"щ":{"ha":1161,"x_min":104,"x_max":1126,"o":"m 1007 0 l 104 0 l 104 681 l 224 681 l 224 108 l 504 108 l 504 681 l 624 681 l 624 108 l 904 108 l 904 681 l 1024 681 l 1024 108 l 1126 108 l 1126 -174 l 1007 -174 l 1007 0 z "},"ъ":{"ha":868,"x_min":0,"x_max":792,"o":"m 211 572 l 0 572 l 0 681 l 331 681 l 331 456 l 486 456 q 715 400 638 456 q 792 228 792 344 q 715 56 792 111 q 486 0 638 0 l 211 0 l 211 572 m 486 104 q 574 112 539 104 q 631 135 610 119 q 660 174 651 151 q 669 228 669 197 q 660 281 669 258 q 631 319 651 304 q 574 343 610 335 q 486 351 539 351 l 331 351 l 331 104 l 486 104 z "},"ы":{"ha":1015,"x_min":104,"x_max":911,"o":"m 104 681 l 224 681 l 224 456 l 360 456 q 588 400 511 456 q 665 228 665 344 q 588 56 665 111 q 360 0 511 0 l 104 0 l 104 681 m 360 104 q 448 112 413 104 q 504 135 483 119 q 534 174 525 151 q 543 228 543 197 q 534 281 543 258 q 504 319 525 304 q 448 343 483 335 q 360 351 413 351 l 224 351 l 224 104 l 360 104 m 792 681 l 911 681 l 911 0 l 792 0 l 792 681 z "},"ь":{"ha":761,"x_min":104,"x_max":685,"o":"m 104 681 l 224 681 l 224 456 l 379 456 q 608 400 531 456 q 685 228 685 344 q 608 56 685 111 q 379 0 531 0 l 104 0 l 104 681 m 379 104 q 467 112 432 104 q 524 135 503 119 q 553 174 544 151 q 563 228 563 197 q 553 281 563 258 q 524 319 544 304 q 467 343 503 335 q 379 351 432 351 l 224 351 l 224 104 l 379 104 z "},"э":{"ha":881,"x_min":69,"x_max":804,"o":"m 431 -12 q 263 19 332 -12 q 151 95 194 51 q 89 186 108 139 q 69 265 69 233 l 193 265 q 232 182 203 218 q 304 124 257 150 q 431 99 351 99 q 544 121 497 99 q 620 174 590 143 q 664 235 650 204 q 678 286 678 267 l 401 286 l 401 394 l 678 394 q 664 447 678 415 q 620 510 650 479 q 543 562 590 540 q 431 583 496 583 q 304 558 351 583 q 232 500 257 532 q 193 417 203 464 l 69 417 q 89 495 69 447 q 151 587 108 543 q 263 663 194 631 q 431 694 332 694 q 579 669 511 694 q 697 599 647 644 q 776 488 747 553 q 804 342 804 422 q 776 194 804 260 q 697 83 747 129 q 579 13 647 38 q 431 -12 511 -12 z "},"ю":{"ha":1111,"x_min":104,"x_max":1035,"o":"m 696 -14 q 592 -1 638 -14 q 511 34 546 13 q 451 83 476 56 q 410 139 426 110 q 360 292 371 206 l 224 292 l 224 0 l 104 0 l 104 681 l 224 681 l 224 394 l 360 394 q 413 544 372 478 q 454 599 429 572 q 513 647 479 626 q 592 681 547 668 q 696 694 638 694 q 833 669 771 694 q 940 596 896 643 q 1010 484 985 549 q 1035 340 1035 419 q 1010 197 1035 261 q 940 85 985 132 q 833 12 896 38 q 696 -14 771 -14 m 696 97 q 790 117 749 97 q 858 169 831 136 q 899 247 885 203 q 913 340 913 290 q 899 434 913 390 q 858 511 885 478 q 790 564 831 544 q 696 583 749 583 q 602 564 643 583 q 533 511 561 544 q 492 434 506 478 q 478 340 478 390 q 492 247 478 290 q 533 169 506 203 q 602 117 561 136 q 696 97 643 97 z "},"я":{"ha":792,"x_min":76,"x_max":688,"o":"m 236 256 q 161 293 194 268 q 110 354 133 315 q 88 458 88 393 q 166 626 88 572 q 385 681 244 681 l 688 681 l 688 0 l 568 0 l 568 236 l 354 236 l 206 0 l 76 0 l 236 256 m 568 340 l 568 576 l 385 576 q 249 547 289 576 q 210 458 210 517 q 249 370 210 400 q 385 340 289 340 l 568 340 z "},"ё":{"ha":900,"x_min":76,"x_max":824,"o":"m 457 -14 q 304 11 374 -14 q 184 82 235 36 q 105 193 133 128 q 76 340 76 258 q 105 487 76 421 q 183 599 133 553 q 301 669 233 644 q 450 694 369 694 q 599 669 531 694 q 717 599 667 644 q 795 487 767 553 q 824 340 824 421 q 823 317 824 328 q 821 299 822 306 q 819 283 819 290 l 204 283 q 219 228 204 260 q 266 167 235 196 q 344 117 297 138 q 457 97 392 97 q 554 111 515 97 q 618 142 593 125 q 664 188 646 161 l 804 188 q 736 86 782 131 q 630 17 697 49 q 457 -14 563 -14 m 697 392 q 682 450 697 417 q 636 513 667 483 q 559 563 606 542 q 450 583 513 583 q 341 563 388 583 q 264 513 294 542 q 218 450 233 483 q 203 392 203 417 l 697 392 m 318 792 q 266 808 286 792 q 246 858 246 824 q 266 905 246 889 q 318 921 286 921 q 369 905 350 921 q 389 858 389 889 q 369 808 389 824 q 318 792 350 792 m 582 792 q 530 808 550 792 q 510 858 510 824 q 530 905 510 889 q 582 921 550 921 q 633 905 614 921 q 653 858 653 889 q 633 808 653 824 q 582 792 614 792 z "},"–":{"ha":950,"x_min":69,"x_max":881,"o":"m 69 408 l 881 408 l 881 303 l 69 303 l 69 408 z "},"—":{"ha":1217,"x_min":69,"x_max":1147,"o":"m 69 408 l 1147 408 l 1147 303 l 69 303 l 69 408 z "},"“":{"ha":535,"x_min":69,"x_max":465,"o":"m 146 675 q 91 697 111 675 q 69 767 71 718 q 96 931 69 876 q 156 986 122 986 l 156 868 q 166 832 156 840 q 189 818 176 824 q 212 801 201 813 q 222 754 222 789 q 202 694 222 714 q 146 675 182 675 m 389 675 q 334 697 354 675 q 313 767 314 718 q 339 931 313 876 q 399 986 365 986 l 399 868 q 409 832 399 840 q 432 818 419 824 q 455 801 444 813 q 465 754 465 789 q 445 694 465 714 q 389 675 425 675 z "},"”":{"ha":479,"x_min":42,"x_max":438,"o":"m 108 793 q 98 829 108 821 q 75 843 88 838 q 52 860 63 849 q 42 907 42 872 q 62 967 42 947 q 118 986 82 986 q 173 965 153 986 q 194 894 193 943 q 168 730 194 785 q 108 675 142 675 l 108 793 m 351 793 q 341 829 351 821 q 318 843 331 838 q 295 860 306 849 q 285 907 285 872 q 305 967 285 947 q 361 986 325 986 q 416 965 396 986 q 438 894 436 943 q 411 730 438 785 q 351 675 385 675 l 351 793 z "},"„":{"ha":535,"x_min":69,"x_max":465,"o":"m 136 -62 q 126 -26 136 -35 q 103 -12 115 -18 q 80 5 90 -7 q 69 51 69 17 q 90 111 69 92 q 146 131 110 131 q 201 109 181 131 q 222 39 221 88 q 196 -126 222 -71 q 136 -181 169 -181 l 136 -62 m 379 -62 q 369 -26 379 -35 q 346 -12 358 -18 q 323 5 333 -7 q 313 51 313 17 q 333 111 313 92 q 389 131 353 131 q 444 109 424 131 q 465 39 464 88 q 439 -126 465 -71 q 379 -181 413 -181 l 379 -62 z "},"…":{"ha":847,"x_min":69,"x_max":778,"o":"m 146 -14 q 90 5 110 -14 q 69 58 69 24 q 90 112 69 93 q 146 131 110 131 q 202 112 182 131 q 222 58 222 93 q 202 5 222 24 q 146 -14 182 -14 m 424 -14 q 367 5 388 -14 q 347 58 347 24 q 367 112 347 93 q 424 131 388 131 q 480 112 460 131 q 500 58 500 93 q 480 5 500 24 q 424 -14 460 -14 m 701 -14 q 645 5 665 -14 q 625 58 625 24 q 645 112 625 93 q 701 131 665 131 q 758 112 738 131 q 778 58 778 93 q 758 5 778 24 q 701 -14 738 -14 z "},"€":{"ha":1197,"x_min":42,"x_max":1107,"o":"m 636 -14 q 499 1 560 -14 q 390 41 438 17 q 308 97 343 65 q 249 163 274 129 q 167 340 190 240 l 42 340 l 42 435 l 153 435 q 151 449 151 442 q 150 465 150 456 q 150 486 150 474 q 150 507 150 497 q 151 524 150 517 q 153 538 151 531 l 42 538 l 42 632 l 167 632 q 250 808 192 731 q 310 874 275 842 q 392 931 344 906 q 499 971 439 956 q 636 986 560 986 q 853 943 764 986 q 999 839 943 900 q 1081 709 1056 778 q 1107 590 1107 640 l 972 590 q 917 728 957 667 q 874 779 899 754 q 815 824 849 804 q 736 855 781 843 q 636 867 692 867 q 545 856 586 867 q 472 829 504 846 q 414 792 439 813 q 371 749 389 771 q 307 632 328 697 l 614 632 l 614 538 l 289 538 q 288 524 288 531 q 286 507 286 517 q 286 486 286 497 q 286 465 286 474 q 288 449 286 456 q 289 435 288 442 l 614 435 l 614 340 l 307 340 q 369 222 326 274 q 413 179 388 200 q 470 142 438 158 q 544 115 503 125 q 636 106 585 106 q 736 117 692 106 q 815 149 781 129 q 874 192 849 168 q 917 243 899 217 q 972 382 957 304 l 1107 382 q 1081 263 1107 332 q 999 133 1056 194 q 853 29 943 72 q 636 -14 764 -14 z "},"₽":{"ha":963,"x_min":42,"x_max":865,"o":"m 161 158 l 42 158 l 42 275 l 161 275 l 161 372 l 42 372 l 42 489 l 161 489 l 161 972 l 476 972 q 765 899 664 972 q 865 672 865 825 q 765 446 865 519 q 476 372 664 372 l 292 372 l 292 275 l 639 275 l 639 158 l 292 158 l 292 0 l 161 0 l 161 158 m 476 489 q 660 531 592 489 q 729 672 729 572 q 660 814 729 772 q 476 856 592 856 l 292 856 l 292 489 l 476 489 z "}}}
